<?xml version="1.0" standalone="no"?>
<!DOCTYPE svg PUBLIC "-//W3C//DTD SVG 20010904//EN"
 "http://www.w3.org/TR/2001/REC-SVG-20010904/DTD/svg10.dtd">
<svg version="1.0" xmlns="http://www.w3.org/2000/svg"
 width="700.000000pt" height="700.000000pt" viewBox="0 0 700.000000 700.000000"
 preserveAspectRatio="xMidYMid meet">
<metadata>
Created by potrace 1.14, written by Peter Selinger 2001-2017
</metadata>
<g transform="translate(0.000000,700.000000) scale(0.100000,-0.100000)"
fill="#000000" stroke="none">
<path d="M570 3575 l0 -1435 240 0 240 0 0 273 0 272 176 165 c97 91 181 165
187 165 6 0 170 -197 364 -437 l354 -438 290 0 c175 0 289 4 287 9 -1 5 -208
269 -458 587 -250 317 -459 584 -464 592 -6 11 73 97 325 351 184 185 377 380
429 434 l95 97 -290 -1 -290 0 -494 -460 c-272 -252 -498 -459 -503 -459 -4 0
-8 387 -8 860 l0 860 -240 0 -240 0 0 -1435z"/>
<path d="M4025 4220 c-193 -27 -353 -101 -482 -223 l-53 -50 0 132 0 131 -227
-2 -228 -3 -3 -1032 -2 -1033 240 0 240 0 0 549 c0 325 4 582 10 628 41 307
208 473 491 490 285 17 453 -120 499 -407 6 -39 10 -304 10 -662 l0 -598 239
0 240 0 3 608 c3 539 6 614 21 667 45 158 143 280 270 341 204 96 450 64 581
-76 54 -58 81 -109 109 -208 20 -74 21 -102 25 -704 l3 -628 235 0 235 0 -3
708 -3 707 -27 97 c-41 151 -96 247 -198 349 -71 71 -102 94 -181 133 -164 80
-335 109 -536 88 -244 -24 -437 -109 -591 -258 l-77 -75 -25 33 c-112 146
-248 233 -433 279 -93 22 -289 33 -382 19z"/>
</g>
</svg>
